# xmcd CD database file
#
# Track frame offsets:
#	150
#	19326
#	36150
#	49849
#	76106
#
# Disc length: 1270 seconds
#
# Revision: 0
# Processed by: cddbd v1.5.2PL0 Copyright (c) Steve Scherf et al.
# Submitted via: CDex 1.70beta2
#
DISCID=3404f405
DTITLE=Granger Smith - We Bleed Maroon
DYEAR=2007
DGENRE=Country
TTITLE0=What Would Jesse James Say
TTITLE1=Colorblind
TTITLE2='Til The Wheels Fall Off
TTITLE3=We Bleed Maroon
TTITLE4=Mockingbird Rd. (Live)
EXTD=YEAR: 2007
EXTT0=
EXTT1=
EXTT2=
EXTT3=
EXTT4=
PLAYORDER=
